<?xml version="1.0" encoding="utf-8"?>
<!-- Generator: Adobe Illustrator 24.2.1, SVG Export Plug-In . SVG Version: 6.00 Build 0)  -->
<svg version="1.1" id="Layer_1" xmlns="http://www.w3.org/2000/svg" xmlns:xlink="http://www.w3.org/1999/xlink" x="0px" y="0px"
	 viewBox="0 0 283.46 85.04" style="enable-background:new 0 0 283.46 85.04;" xml:space="preserve">
<style type="text/css">
	.st0{fill:#222222;}
</style>
<g>
	<g>
		<path class="st0" d="M81.57,80.18H18.76c-2.76,0-5-2.24-5-5V9.86c0-2.76,2.24-5,5-5h62.81c2.76,0,5,2.24,5,5v65.33
			C86.57,77.94,84.33,80.18,81.57,80.18z"/>
	</g>
	<g>
		<ellipse class="st0" cx="143.36" cy="42.52" rx="36.4" ry="37.66"/>
	</g>
	<g>
		<path class="st0" d="M229.45,11.1l-31.93,59.72c-1.78,3.33,0.63,7.36,4.41,7.36h63.85c3.78,0,6.19-4.03,4.41-7.36L238.27,11.1
			C236.39,7.57,231.34,7.57,229.45,11.1z"/>
	</g>
</g>
</svg>
